<mxfile host="app.diagrams.net" modified="2022-05-25T12:57:10.968Z" agent="5.0 (Windows NT 10.0; Win64; x64) AppleWebKit/537.36 (KHTML, like Gecko) Chrome/101.0.4951.67 Safari/537.36" etag="ftl3zK7Uw5DFee1UDtgc" version="17.4.6" type="github" pages="5">
  <diagram id="p1-SLzr9O_c1FOZBNYAg" name="Page-1">
    <mxGraphModel dx="1422" dy="762" grid="0" gridSize="10" guides="1" tooltips="1" connect="1" arrows="1" fold="1" page="1" pageScale="1" pageWidth="1169" pageHeight="827" math="0" shadow="0">
      <root>
        <mxCell id="0" />
        <mxCell id="1" parent="0" />
        <mxCell id="rlFK495kiFSLXGlKRbkF-3" style="edgeStyle=orthogonalEdgeStyle;rounded=0;orthogonalLoop=1;jettySize=auto;html=1;exitX=0.5;exitY=1;exitDx=0;exitDy=0;" edge="1" parent="1" source="rlFK495kiFSLXGlKRbkF-1" target="rlFK495kiFSLXGlKRbkF-2">
          <mxGeometry relative="1" as="geometry" />
        </mxCell>
        <mxCell id="rlFK495kiFSLXGlKRbkF-1" value="服务器收集教练健身视频，认为对动作进行分割并对动作标记。" style="rounded=1;whiteSpace=wrap;html=1;" vertex="1" parent="1">
          <mxGeometry x="441" y="52" width="120" height="60" as="geometry" />
        </mxCell>
        <mxCell id="rlFK495kiFSLXGlKRbkF-5" style="edgeStyle=orthogonalEdgeStyle;rounded=0;orthogonalLoop=1;jettySize=auto;html=1;exitX=0.5;exitY=1;exitDx=0;exitDy=0;" edge="1" parent="1" source="rlFK495kiFSLXGlKRbkF-2">
          <mxGeometry relative="1" as="geometry">
            <mxPoint x="501" y="273" as="targetPoint" />
          </mxGeometry>
        </mxCell>
        <mxCell id="rlFK495kiFSLXGlKRbkF-2" value="服务器对短视频进行躯干分割网络，切割出只有人体躯干的健身视频" style="rounded=1;whiteSpace=wrap;html=1;" vertex="1" parent="1">
          <mxGeometry x="441" y="159" width="120" height="60" as="geometry" />
        </mxCell>
        <mxCell id="rlFK495kiFSLXGlKRbkF-4" value="服务使用标记和视频进行神经网络训练，得到躯干健身动作的识别模型" style="rounded=1;whiteSpace=wrap;html=1;" vertex="1" parent="1">
          <mxGeometry x="441" y="274" width="120" height="60" as="geometry" />
        </mxCell>
      </root>
    </mxGraphModel>
  </diagram>
  <diagram id="1KcbEm2WhSp7IRb16Uz5" name="Page-2">
    <mxGraphModel dx="1422" dy="762" grid="0" gridSize="10" guides="1" tooltips="1" connect="1" arrows="1" fold="1" page="1" pageScale="1" pageWidth="1169" pageHeight="827" math="0" shadow="0">
      <root>
        <mxCell id="0" />
        <mxCell id="1" parent="0" />
        <mxCell id="SKJmWWVf4kepG4p3_zUM-3" style="edgeStyle=orthogonalEdgeStyle;rounded=0;orthogonalLoop=1;jettySize=auto;html=1;exitX=0.5;exitY=1;exitDx=0;exitDy=0;" edge="1" parent="1" source="SKJmWWVf4kepG4p3_zUM-1" target="SKJmWWVf4kepG4p3_zUM-2">
          <mxGeometry relative="1" as="geometry" />
        </mxCell>
        <mxCell id="SKJmWWVf4kepG4p3_zUM-1" value="主播填写直播间类型，填写为健身" style="rounded=1;whiteSpace=wrap;html=1;" vertex="1" parent="1">
          <mxGeometry x="503" y="32" width="120" height="60" as="geometry" />
        </mxCell>
        <mxCell id="SKJmWWVf4kepG4p3_zUM-5" style="edgeStyle=orthogonalEdgeStyle;rounded=0;orthogonalLoop=1;jettySize=auto;html=1;exitX=0.5;exitY=1;exitDx=0;exitDy=0;" edge="1" parent="1" source="SKJmWWVf4kepG4p3_zUM-2" target="SKJmWWVf4kepG4p3_zUM-4">
          <mxGeometry relative="1" as="geometry" />
        </mxCell>
        <mxCell id="SKJmWWVf4kepG4p3_zUM-2" value="服务器推送躯干切割网络，健身动作识别网络，nlp文字场景网络到主播端" style="rounded=1;whiteSpace=wrap;html=1;" vertex="1" parent="1">
          <mxGeometry x="503" y="138" width="120" height="60" as="geometry" />
        </mxCell>
        <mxCell id="SKJmWWVf4kepG4p3_zUM-7" style="edgeStyle=orthogonalEdgeStyle;rounded=0;orthogonalLoop=1;jettySize=auto;html=1;exitX=0.5;exitY=1;exitDx=0;exitDy=0;entryX=0.5;entryY=0;entryDx=0;entryDy=0;" edge="1" parent="1" source="SKJmWWVf4kepG4p3_zUM-4" target="SKJmWWVf4kepG4p3_zUM-6">
          <mxGeometry relative="1" as="geometry" />
        </mxCell>
        <mxCell id="SKJmWWVf4kepG4p3_zUM-4" value="主播端通过语音转文字，识别文本是否带有类似开始标记的上下文" style="rounded=1;whiteSpace=wrap;html=1;" vertex="1" parent="1">
          <mxGeometry x="503" y="247" width="120" height="60" as="geometry" />
        </mxCell>
        <mxCell id="SKJmWWVf4kepG4p3_zUM-9" style="edgeStyle=orthogonalEdgeStyle;rounded=0;orthogonalLoop=1;jettySize=auto;html=1;exitX=0.5;exitY=1;exitDx=0;exitDy=0;" edge="1" parent="1" source="SKJmWWVf4kepG4p3_zUM-6" target="SKJmWWVf4kepG4p3_zUM-8">
          <mxGeometry relative="1" as="geometry" />
        </mxCell>
        <mxCell id="SKJmWWVf4kepG4p3_zUM-13" style="edgeStyle=orthogonalEdgeStyle;rounded=0;orthogonalLoop=1;jettySize=auto;html=1;exitX=0.5;exitY=1;exitDx=0;exitDy=0;" edge="1" parent="1" source="SKJmWWVf4kepG4p3_zUM-6" target="SKJmWWVf4kepG4p3_zUM-11">
          <mxGeometry relative="1" as="geometry" />
        </mxCell>
        <mxCell id="SKJmWWVf4kepG4p3_zUM-6" value="识别到开始后，主播端通过分割网络和健身动作识别网络对主播动作进行识别" style="rounded=1;whiteSpace=wrap;html=1;" vertex="1" parent="1">
          <mxGeometry x="503" y="368" width="120" height="60" as="geometry" />
        </mxCell>
        <mxCell id="SKJmWWVf4kepG4p3_zUM-17" style="edgeStyle=orthogonalEdgeStyle;rounded=0;orthogonalLoop=1;jettySize=auto;html=1;exitX=0.5;exitY=1;exitDx=0;exitDy=0;" edge="1" parent="1" source="SKJmWWVf4kepG4p3_zUM-8" target="SKJmWWVf4kepG4p3_zUM-16">
          <mxGeometry relative="1" as="geometry" />
        </mxCell>
        <mxCell id="SKJmWWVf4kepG4p3_zUM-8" value="主播端将识别到动作和对应视频视频戳上传到服务器" style="rounded=1;whiteSpace=wrap;html=1;" vertex="1" parent="1">
          <mxGeometry x="410" y="485" width="120" height="60" as="geometry" />
        </mxCell>
        <mxCell id="SKJmWWVf4kepG4p3_zUM-10" value="成功识别" style="text;html=1;strokeColor=none;fillColor=none;align=center;verticalAlign=middle;whiteSpace=wrap;rounded=0;" vertex="1" parent="1">
          <mxGeometry x="429" y="423" width="60" height="30" as="geometry" />
        </mxCell>
        <mxCell id="SKJmWWVf4kepG4p3_zUM-15" style="edgeStyle=orthogonalEdgeStyle;rounded=0;orthogonalLoop=1;jettySize=auto;html=1;exitX=1;exitY=0.5;exitDx=0;exitDy=0;" edge="1" parent="1" source="SKJmWWVf4kepG4p3_zUM-11" target="SKJmWWVf4kepG4p3_zUM-14">
          <mxGeometry relative="1" as="geometry" />
        </mxCell>
        <mxCell id="SKJmWWVf4kepG4p3_zUM-11" value="主播端将无法识别的时间段时间上传到服务器" style="rounded=1;whiteSpace=wrap;html=1;" vertex="1" parent="1">
          <mxGeometry x="618" y="485" width="120" height="60" as="geometry" />
        </mxCell>
        <mxCell id="SKJmWWVf4kepG4p3_zUM-14" value="服务器将识别失败的数据进行标记，从新进行（1）的训练" style="rounded=1;whiteSpace=wrap;html=1;" vertex="1" parent="1">
          <mxGeometry x="733" y="370" width="120" height="60" as="geometry" />
        </mxCell>
        <mxCell id="SKJmWWVf4kepG4p3_zUM-16" value="服务器将识别动作标识和时间戳推送到用户客户端" style="rounded=1;whiteSpace=wrap;html=1;" vertex="1" parent="1">
          <mxGeometry x="410" y="588" width="120" height="60" as="geometry" />
        </mxCell>
      </root>
    </mxGraphModel>
  </diagram>
  <diagram id="hn4sKaCCHOANQAPdDbZs" name="Page-3">
    <mxGraphModel dx="1422" dy="762" grid="0" gridSize="10" guides="1" tooltips="1" connect="1" arrows="1" fold="1" page="1" pageScale="1" pageWidth="1169" pageHeight="827" math="0" shadow="0">
      <root>
        <mxCell id="0" />
        <mxCell id="1" parent="0" />
        <mxCell id="Mn0DFeslraVpp2iFaxiw-3" style="edgeStyle=orthogonalEdgeStyle;rounded=0;orthogonalLoop=1;jettySize=auto;html=1;exitX=0.5;exitY=1;exitDx=0;exitDy=0;" edge="1" parent="1" source="Mn0DFeslraVpp2iFaxiw-1" target="Mn0DFeslraVpp2iFaxiw-2">
          <mxGeometry relative="1" as="geometry" />
        </mxCell>
        <mxCell id="Mn0DFeslraVpp2iFaxiw-1" value="主播端上传音频流到付服务器，服务器通过片段识别音乐" style="rounded=1;whiteSpace=wrap;html=1;" vertex="1" parent="1">
          <mxGeometry x="507" y="63" width="120" height="60" as="geometry" />
        </mxCell>
        <mxCell id="Mn0DFeslraVpp2iFaxiw-5" style="edgeStyle=orthogonalEdgeStyle;rounded=0;orthogonalLoop=1;jettySize=auto;html=1;exitX=0.5;exitY=1;exitDx=0;exitDy=0;" edge="1" parent="1" source="Mn0DFeslraVpp2iFaxiw-2" target="Mn0DFeslraVpp2iFaxiw-4">
          <mxGeometry relative="1" as="geometry" />
        </mxCell>
        <mxCell id="Mn0DFeslraVpp2iFaxiw-2" value="主播端上传音频流到付服务器，服务器通过片段识别整首音乐" style="rounded=1;whiteSpace=wrap;html=1;" vertex="1" parent="1">
          <mxGeometry x="507" y="171" width="120" height="60" as="geometry" />
        </mxCell>
        <mxCell id="Mn0DFeslraVpp2iFaxiw-7" style="edgeStyle=orthogonalEdgeStyle;rounded=0;orthogonalLoop=1;jettySize=auto;html=1;exitX=0.5;exitY=1;exitDx=0;exitDy=0;" edge="1" parent="1" source="Mn0DFeslraVpp2iFaxiw-4" target="Mn0DFeslraVpp2iFaxiw-6">
          <mxGeometry relative="1" as="geometry" />
        </mxCell>
        <mxCell id="Mn0DFeslraVpp2iFaxiw-4" value="服务器将识别拍子的间隔时间发送到主播端" style="rounded=1;whiteSpace=wrap;html=1;" vertex="1" parent="1">
          <mxGeometry x="507" y="285" width="120" height="60" as="geometry" />
        </mxCell>
        <mxCell id="Mn0DFeslraVpp2iFaxiw-6" value="主播端调整视频流切割时间，优化识别的准确性" style="rounded=1;whiteSpace=wrap;html=1;" vertex="1" parent="1">
          <mxGeometry x="507" y="402" width="120" height="60" as="geometry" />
        </mxCell>
      </root>
    </mxGraphModel>
  </diagram>
  <diagram id="m-xO2JRoM4bZuqdaaLUu" name="Page-4">
    <mxGraphModel dx="1422" dy="762" grid="0" gridSize="10" guides="1" tooltips="1" connect="1" arrows="1" fold="1" page="1" pageScale="1" pageWidth="1169" pageHeight="827" math="0" shadow="0">
      <root>
        <mxCell id="0" />
        <mxCell id="1" parent="0" />
        <mxCell id="oODoNDZW-oYEhJ9nn1hE-3" style="edgeStyle=orthogonalEdgeStyle;rounded=0;orthogonalLoop=1;jettySize=auto;html=1;exitX=0.5;exitY=1;exitDx=0;exitDy=0;" edge="1" parent="1" source="oODoNDZW-oYEhJ9nn1hE-1" target="oODoNDZW-oYEhJ9nn1hE-2">
          <mxGeometry relative="1" as="geometry" />
        </mxCell>
        <mxCell id="oODoNDZW-oYEhJ9nn1hE-1" value="通过语音上下文以及是识别到的音乐歌曲进行录制健身视频的开始节点" style="rounded=1;whiteSpace=wrap;html=1;" vertex="1" parent="1">
          <mxGeometry x="489" y="37" width="120" height="60" as="geometry" />
        </mxCell>
        <mxCell id="oODoNDZW-oYEhJ9nn1hE-2" value="通过识别音乐结束或拍子结束来认为健身结束节点，停止录制" style="rounded=1;whiteSpace=wrap;html=1;" vertex="1" parent="1">
          <mxGeometry x="489" y="173" width="120" height="60" as="geometry" />
        </mxCell>
      </root>
    </mxGraphModel>
  </diagram>
  <diagram id="sb7y4LVzNgBX00zYbB3W" name="Page-5">
    <mxGraphModel dx="1422" dy="761" grid="0" gridSize="10" guides="1" tooltips="1" connect="1" arrows="1" fold="1" page="1" pageScale="1" pageWidth="1169" pageHeight="827" math="0" shadow="0">
      <root>
        <mxCell id="0" />
        <mxCell id="1" parent="0" />
        <mxCell id="t57CAjD7o_OjqFP30UhX-4" style="edgeStyle=orthogonalEdgeStyle;rounded=0;orthogonalLoop=1;jettySize=auto;html=1;exitX=0.5;exitY=1;exitDx=0;exitDy=0;" edge="1" parent="1" source="t57CAjD7o_OjqFP30UhX-1" target="t57CAjD7o_OjqFP30UhX-3">
          <mxGeometry relative="1" as="geometry" />
        </mxCell>
        <mxCell id="t57CAjD7o_OjqFP30UhX-1" value="主播端使用神经网络对主播躯干关键点识别，构建3D和2D的建模" style="rounded=1;whiteSpace=wrap;html=1;" vertex="1" parent="1">
          <mxGeometry x="329" y="46" width="120" height="60" as="geometry" />
        </mxCell>
        <mxCell id="t57CAjD7o_OjqFP30UhX-5" style="edgeStyle=orthogonalEdgeStyle;rounded=0;orthogonalLoop=1;jettySize=auto;html=1;exitX=0.5;exitY=1;exitDx=0;exitDy=0;" edge="1" parent="1" source="t57CAjD7o_OjqFP30UhX-2" target="t57CAjD7o_OjqFP30UhX-3">
          <mxGeometry relative="1" as="geometry" />
        </mxCell>
        <mxCell id="t57CAjD7o_OjqFP30UhX-2" value="服务器采集专业的健身教练的动作数据和躯干关键点，并进行动作识别已经关键点识别" style="rounded=1;whiteSpace=wrap;html=1;" vertex="1" parent="1">
          <mxGeometry x="541" y="23" width="120" height="83" as="geometry" />
        </mxCell>
        <mxCell id="t57CAjD7o_OjqFP30UhX-7" style="edgeStyle=orthogonalEdgeStyle;rounded=0;orthogonalLoop=1;jettySize=auto;html=1;exitX=0.5;exitY=1;exitDx=0;exitDy=0;" edge="1" parent="1" source="t57CAjD7o_OjqFP30UhX-3" target="t57CAjD7o_OjqFP30UhX-6">
          <mxGeometry relative="1" as="geometry" />
        </mxCell>
        <mxCell id="t57CAjD7o_OjqFP30UhX-3" value="服务器匹配主播身材类似身材的健身教练数据" style="rounded=1;whiteSpace=wrap;html=1;" vertex="1" parent="1">
          <mxGeometry x="434" y="178" width="120" height="60" as="geometry" />
        </mxCell>
        <mxCell id="t57CAjD7o_OjqFP30UhX-9" style="edgeStyle=orthogonalEdgeStyle;rounded=0;orthogonalLoop=1;jettySize=auto;html=1;exitX=0.5;exitY=1;exitDx=0;exitDy=0;" edge="1" parent="1" source="t57CAjD7o_OjqFP30UhX-6" target="t57CAjD7o_OjqFP30UhX-8">
          <mxGeometry relative="1" as="geometry" />
        </mxCell>
        <mxCell id="t57CAjD7o_OjqFP30UhX-6" value="服务器首会将健身教练动作关键和主播关键点进行比对" style="rounded=1;whiteSpace=wrap;html=1;" vertex="1" parent="1">
          <mxGeometry x="434" y="287" width="120" height="60" as="geometry" />
        </mxCell>
        <mxCell id="t57CAjD7o_OjqFP30UhX-8" value="在直播结束后，服务器会推送弹框到主播端，让主播查看到自身动作的标准度" style="rounded=1;whiteSpace=wrap;html=1;" vertex="1" parent="1">
          <mxGeometry x="434" y="388" width="120" height="60" as="geometry" />
        </mxCell>
      </root>
    </mxGraphModel>
  </diagram>
</mxfile>
